<svg width="396.5599853515625px" height="124.439990234375px" xmlns="http://www.w3.org/2000/svg" viewBox="51.720007324218756 12.780004882812499 396.5599853515625 124.439990234375" style="background: rgba(0, 0, 0, 0) none repeat scroll 0% 0%;" preserveAspectRatio="xMidYMid"><defs><filter id="editing-hole" x="-100%" y="-100%" width="300%" height="300%"><feFlood flood-color="#000" result="black"></feFlood><feMorphology operator="dilate" radius="2" in="SourceGraphic" result="erode"></feMorphology><feGaussianBlur in="erode" stdDeviation="4" result="blur"></feGaussianBlur><feOffset in="blur" dx="2" dy="2" result="offset"></feOffset><feComposite operator="atop" in="offset" in2="black" result="merge"></feComposite><feComposite operator="in" in="merge" in2="SourceGraphic" result="inner-shadow"></feComposite></filter></defs><g filter="url(#editing-hole)"><g transform="translate(113.03999054431915, 98.68000030517578)"><path d="M26.05-29.57L26.05-29.57L26.05-29.57Q27.01-31.49 27.01-33.28L27.01-33.28L27.01-33.28Q27.01-35.07 26.82-36.06L26.82-36.06L26.82-36.06Q26.62-37.06 26.18-37.82L26.18-37.82L26.18-37.82Q25.22-39.49 23.30-39.49L23.30-39.49L23.30-39.49Q20.93-39.49 19.01-37.76L19.01-37.76L19.01-37.76Q16.96-35.97 16.96-33.15L16.96-33.15L16.96-33.15Q16.96-31.36 18.21-29.98L18.21-29.98L18.21-29.98Q19.46-28.61 21.38-27.33L21.38-27.33L21.38-27.33Q23.30-26.05 25.47-24.77L25.47-24.77L25.47-24.77Q27.65-23.49 29.57-21.95L29.57-21.95L29.57-21.95Q33.98-18.43 33.98-13.70L33.98-13.70L33.98-13.70Q33.98-10.50 32.29-7.78L32.29-7.78L32.29-7.78Q30.59-5.06 27.78-3.07L27.78-3.07L27.78-3.07Q21.63 1.28 13.50 1.28L13.50 1.28L13.50 1.28Q6.91 1.28 3.52-0.86L3.52-0.86L3.52-0.86Q0.13-3.01 0.13-6.27L0.13-6.27L0.13-6.27Q0.13-12.10 4.67-13.57L4.67-13.57L4.67-13.57Q5.95-14.02 7.90-14.02L7.90-14.02L7.90-14.02Q9.86-14.02 12.10-13.18L12.10-13.18L12.10-13.18Q11.07-10.56 11.07-8.19L11.07-8.19L11.07-8.19Q11.07-3.07 14.72-3.07L14.72-3.07L14.72-3.07Q17.09-3.07 19.04-4.80L19.04-4.80L19.04-4.80Q20.99-6.53 20.99-8.48L20.99-8.48L20.99-8.48Q20.99-10.43 19.74-11.84L19.74-11.84L19.74-11.84Q18.50-13.25 16.64-14.37L16.64-14.37L16.64-14.37Q14.78-15.49 12.64-16.58L12.64-16.58L12.64-16.58Q10.50-17.66 8.64-19.20L8.64-19.20L8.64-19.20Q4.29-22.72 4.29-28.35L4.29-28.35L4.29-28.35Q4.29-32 6.08-34.85L6.08-34.85L6.08-34.85Q7.87-37.70 10.75-39.62L10.75-39.62L10.75-39.62Q16.51-43.52 23.58-43.52L23.58-43.52L23.58-43.52Q30.66-43.52 34.08-41.41L34.08-41.41L34.08-41.41Q37.50-39.30 37.50-35.71L37.50-35.71L37.50-35.71Q37.50-32.58 35.07-30.59L35.07-30.59L35.07-30.59Q32.96-28.93 30.40-28.93L30.40-28.93L30.40-28.93Q27.84-28.93 26.05-29.57ZM41.63-1.92L41.63-1.92L41.63-1.92Q40.13-3.58 39.46-6.21L39.46-6.21L39.46-6.21Q38.78-8.83 38.78-13.12L38.78-13.12L38.78-13.12Q38.78-17.41 40.26-21.31L40.26-21.31L40.26-21.31Q41.73-25.22 44.42-28.03L44.42-28.03L44.42-28.03Q49.92-33.92 59.01-33.92L59.01-33.92L59.01-33.92Q62.27-33.92 64.64-32.83L64.64-32.83L75.58-33.92L70.85-8.96L70.85-8.96Q70.66-8.19 70.66-6.78L70.66-6.78L70.66-6.78Q70.66-5.38 71.52-4.48L71.52-4.48L71.52-4.48Q72.38-3.58 73.66-3.46L73.66-3.46L73.66-3.46Q73.02-1.28 70.69 0L70.69 0L70.69 0Q68.35 1.28 65.73 1.28L65.73 1.28L65.73 1.28Q63.10 1.28 61.34 0.29L61.34 0.29L61.34 0.29Q59.58-0.70 59.07-2.37L59.07-2.37L59.07-2.37Q58.05-0.77 55.87 0.26L55.87 0.26L55.87 0.26Q53.70 1.28 50.78 1.28L50.78 1.28L50.78 1.28Q47.87 1.28 45.50 0.51L45.50 0.51L45.50 0.51Q43.14-0.26 41.63-1.92ZM55.14-27.90L55.14-27.90L55.14-27.90Q54.40-26.75 53.76-24.80L53.76-24.80L53.76-24.80Q53.12-22.85 52.06-17.63L52.06-17.63L52.06-17.63Q51.01-12.42 51.01-8.70L51.01-8.70L51.01-8.70Q51.01-4.99 51.58-3.90L51.58-3.90L51.58-3.90Q52.16-2.82 53.18-2.82L53.18-2.82L53.18-2.82Q55.23-2.82 56.74-4.77L56.74-4.77L56.74-4.77Q58.24-6.72 58.82-10.18L58.82-10.18L62.21-28.93L62.21-28.93Q60.86-30.08 59.30-30.08L59.30-30.08L59.30-30.08Q57.73-30.08 56.80-29.57L56.80-29.57L56.80-29.57Q55.87-29.06 55.14-27.90ZM106.11 1.28L106.11 1.28L106.11 1.28Q98.37 1.28 98.37-4.74L98.37-4.74L98.37-4.74Q98.43-6.40 98.94-9.22L98.94-9.22L100.10-15.10L100.10-15.10Q101.82-23.42 101.82-25.28L101.82-25.28L101.82-25.28Q101.82-28.99 99.65-28.99L99.65-28.99L99.65-28.99Q96-28.99 94.08-19.46L94.08-19.46L90.30 0L77.44 1.28L84.10-32.70L94.59-33.92L93.57-27.65L93.57-27.65Q96.58-33.92 105.79-33.92L105.79-33.92L105.79-33.92Q110.27-33.92 112.16-32.03L112.16-32.03L112.16-32.03Q114.05-30.14 114.05-25.92L114.05-25.92L114.05-25.92Q114.05-21.95 112-12.67L112-12.67L112-12.67Q111.04-8.51 111.04-6.94L111.04-6.94L111.04-6.94Q111.04-5.38 111.90-4.48L111.90-4.48L111.90-4.48Q112.77-3.58 114.05-3.46L114.05-3.46L114.05-3.46Q113.41-1.28 111.20 0L111.20 0L111.20 0Q108.99 1.28 106.11 1.28ZM139.33-33.92L139.33-33.92L139.33-33.92Q141.63-33.92 143.42-33.41L143.42-33.41L143.42-33.41Q143.49-33.66 143.62-34.37L143.62-34.37L143.94-36.35L143.94-36.35Q144.19-37.63 144.58-39.74L144.58-39.74L145.60-44.80L158.34-46.08L151.23-8.96L151.23-8.96Q151.17-8.58 151.17-7.94L151.17-7.94L151.17-6.91L151.17-6.91Q151.17-5.50 151.87-4.45L151.87-4.45L151.87-4.45Q152.58-3.39 153.73-3.39L153.73-3.39L153.73-3.39Q152.45-0.38 148.54 0.90L148.54 0.90L148.54 0.90Q147.20 1.28 145.31 1.28L145.31 1.28L145.31 1.28Q143.42 1.28 141.70 0.29L141.70 0.29L141.70 0.29Q139.97-0.70 139.46-2.37L139.46-2.37L139.46-2.37Q138.43-0.70 136.38 0.29L136.38 0.29L136.38 0.29Q134.34 1.28 131.36 1.28L131.36 1.28L131.36 1.28Q128.38 1.28 125.92 0.51L125.92 0.51L125.92 0.51Q123.46-0.26 121.92-1.92L121.92-1.92L121.92-1.92Q119.10-5.18 119.10-12.61L119.10-12.61L119.10-12.61Q119.10-22.21 124.74-28.03L124.74-28.03L124.74-28.03Q130.37-33.92 139.33-33.92ZM138.88-30.08L138.88-30.08L138.88-30.08Q136.51-30.08 135.23-27.52L135.23-27.52L135.23-27.52Q133.95-24.96 132.64-18.62L132.64-18.62L132.64-18.62Q131.33-12.29 131.33-6.59L131.33-6.59L131.33-6.59Q131.33-2.69 133.63-2.69L133.63-2.69L133.63-2.69Q135.68-2.69 137.12-4.74L137.12-4.74L137.12-4.74Q138.56-6.78 139.14-10.18L139.14-10.18L142.59-28.93L142.59-28.93Q141.25-30.08 138.88-30.08ZM174.46-3.52L174.46-3.52L174.46-3.52Q172.48 1.28 166.14 1.28L166.14 1.28L166.14 1.28Q162.94 1.28 160.90-0.96L160.90-0.96L160.90-0.96Q159.23-2.82 159.23-4.93L159.23-4.93L159.23-4.93Q159.23-9.73 161.47-20.22L161.47-20.22L166.14-44.80L179.14-46.08L172.93-13.70L172.93-13.70Q171.84-8.96 171.84-7.30L171.84-7.30L171.84-7.30Q171.84-3.65 174.46-3.52ZM205.82-10.82L205.82-10.82L205.82-10.82Q207.42-9.73 207.42-7.33L207.42-7.33L207.42-7.33Q207.42-4.93 206.21-3.39L206.21-3.39L206.21-3.39Q204.99-1.86 203.01-0.83L203.01-0.83L203.01-0.83Q198.91 1.28 194.50 1.28L194.50 1.28L194.50 1.28Q190.08 1.28 187.49 0.32L187.49 0.32L187.49 0.32Q184.90-0.64 183.17-2.43L183.17-2.43L183.17-2.43Q179.78-5.82 179.78-12.03L179.78-12.03L179.78-12.03Q179.78-21.70 185.02-27.58L185.02-27.58L185.02-27.58Q190.66-33.92 200.45-33.92L200.45-33.92L200.45-33.92Q206.53-33.92 209.54-31.36L209.54-31.36L209.54-31.36Q211.78-29.44 211.78-26.30L211.78-26.30L211.78-26.30Q211.78-15.04 192.32-15.04L192.32-15.04L192.32-15.04Q192.06-13.38 192.06-11.97L192.06-11.97L192.06-11.97Q192.06-9.02 193.38-7.90L193.38-7.90L193.38-7.90Q194.69-6.78 197.12-6.78L197.12-6.78L197.12-6.78Q199.55-6.78 202.14-7.90L202.14-7.90L202.14-7.90Q204.74-9.02 205.82-10.82ZM192.77-17.79L192.77-17.79L192.77-17.79Q197.31-17.79 199.94-20.61L199.94-20.61L199.94-20.61Q202.56-23.30 202.56-27.58L202.56-27.58L202.56-27.58Q202.56-29.06 202.02-29.86L202.02-29.86L202.02-29.86Q201.47-30.66 200.38-30.66L200.38-30.66L200.38-30.66Q199.30-30.66 198.37-30.24L198.37-30.24L198.37-30.24Q197.44-29.82 196.48-28.42L196.48-28.42L196.48-28.42Q194.11-25.22 192.77-17.79ZM233.09-22.46L233.09-22.46L233.09-22.46Q233.98-24.83 233.98-26.88L233.98-26.88L233.98-26.88Q233.98-30.66 230.91-30.66L230.91-30.66L230.91-30.66Q229.31-30.66 228.00-29.22L228.00-29.22L228.00-29.22Q226.69-27.78 226.69-25.98L226.69-25.98L226.69-25.98Q226.69-24.70 227.71-23.68L227.71-23.68L227.71-23.68Q229.18-22.27 232.96-19.97L232.96-19.97L232.96-19.97Q236.74-17.66 238.18-15.78L238.18-15.78L238.18-15.78Q239.62-13.89 239.62-11.30L239.62-11.30L239.62-11.30Q239.62-8.70 238.37-6.34L238.37-6.34L238.37-6.34Q237.12-3.97 234.88-2.30L234.88-2.30L234.88-2.30Q230.08 1.28 222.40 1.28L222.40 1.28L222.40 1.28Q218.24 1.28 215.04-0.90L215.04-0.90L215.04-0.90Q211.84-3.01 211.84-5.50L211.84-5.50L211.84-5.50Q211.84-8 213.66-9.47L213.66-9.47L213.66-9.47Q215.49-10.94 218.18-10.94L218.18-10.94L218.18-10.94Q220.86-10.94 222.53-9.92L222.53-9.92L222.53-9.92Q221.70-7.81 221.70-6.40L221.70-6.40L221.70-6.40Q221.70-2.18 225.28-2.18L225.28-2.18L225.28-2.18Q226.82-2.18 227.84-3.14L227.84-3.14L227.84-3.14Q228.86-4.10 228.86-5.76L228.86-5.76L228.86-5.76Q228.86-9.02 223.36-12.48L223.36-12.48L223.36-12.48Q218.88-15.42 217.86-16.58L217.86-16.58L217.86-16.58Q216.13-18.62 216.13-21.18L216.13-21.18L216.13-21.18Q216.13-23.74 217.34-26.18L217.34-26.18L217.34-26.18Q218.56-28.61 220.80-30.34L220.80-30.34L220.80-30.34Q225.47-33.92 233.60-33.92L233.60-33.92L233.60-33.92Q237.76-33.92 240.22-32.26L240.22-32.26L240.22-32.26Q242.69-30.59 242.69-27.78L242.69-27.78L242.69-27.78Q242.69-24.96 240.99-23.36L240.99-23.36L240.99-23.36Q239.30-21.76 236.22-21.76L236.22-21.76L236.22-21.76Q234.11-21.76 233.09-22.46ZM264.19-22.46L264.19-22.46L264.19-22.46Q265.09-24.83 265.09-26.88L265.09-26.88L265.09-26.88Q265.09-30.66 262.02-30.66L262.02-30.66L262.02-30.66Q260.42-30.66 259.10-29.22L259.10-29.22L259.10-29.22Q257.79-27.78 257.79-25.98L257.79-25.98L257.79-25.98Q257.79-24.70 258.82-23.68L258.82-23.68L258.82-23.68Q260.29-22.27 264.06-19.97L264.06-19.97L264.06-19.97Q267.84-17.66 269.28-15.78L269.28-15.78L269.28-15.78Q270.72-13.89 270.72-11.30L270.72-11.30L270.72-11.30Q270.72-8.70 269.47-6.34L269.47-6.34L269.47-6.34Q268.22-3.97 265.98-2.30L265.98-2.30L265.98-2.30Q261.18 1.28 253.50 1.28L253.50 1.28L253.50 1.28Q249.34 1.28 246.14-0.90L246.14-0.90L246.14-0.90Q242.94-3.01 242.94-5.50L242.94-5.50L242.94-5.50Q242.94-8 244.77-9.47L244.77-9.47L244.77-9.47Q246.59-10.94 249.28-10.94L249.28-10.94L249.28-10.94Q251.97-10.94 253.63-9.92L253.63-9.92L253.63-9.92Q252.80-7.81 252.80-6.40L252.80-6.40L252.80-6.40Q252.80-2.18 256.38-2.18L256.38-2.18L256.38-2.18Q257.92-2.18 258.94-3.14L258.94-3.14L258.94-3.14Q259.97-4.10 259.97-5.76L259.97-5.76L259.97-5.76Q259.97-9.02 254.46-12.48L254.46-12.48L254.46-12.48Q249.98-15.42 248.96-16.58L248.96-16.58L248.96-16.58Q247.23-18.62 247.23-21.18L247.23-21.18L247.23-21.18Q247.23-23.74 248.45-26.18L248.45-26.18L248.45-26.18Q249.66-28.61 251.90-30.34L251.90-30.34L251.90-30.34Q256.58-33.92 264.70-33.92L264.70-33.92L264.70-33.92Q268.86-33.92 271.33-32.26L271.33-32.26L271.33-32.26Q273.79-30.59 273.79-27.78L273.79-27.78L273.79-27.78Q273.79-24.96 272.10-23.36L272.10-23.36L272.10-23.36Q270.40-21.76 267.33-21.76L267.33-21.76L267.33-21.76Q265.22-21.76 264.19-22.46Z" fill="#ccc"></path></g></g><style>text {
  font-size: 64px;
  font-family: Arial Black;
  dominant-baseline: central;
  text-anchor: middle;
}</style></svg>